<svg version="1.1" id="Layer_1" xmlns="http://www.w3.org/2000/svg" xmlns:xlink="http://www.w3.org/1999/xlink" x="0px" y="0px"
	 width="100%" viewBox="0 0 1024 1024" enable-background="new 0 0 1024 1024" xml:space="preserve">
<path fill="#667176" opacity="1.000000" stroke="none" 
	d="
M904.010193,644.904175 
	C890.318359,685.341797 870.901489,722.312805 845.794495,756.371033 
	C819.576233,791.936707 788.733337,822.799805 752.829529,848.518433 
	C706.745178,881.529541 656.038269,904.124023 600.636719,916.577087 
	C561.727417,925.322998 522.333435,927.565369 482.913849,924.811035 
	C413.880096,919.987488 350.018036,898.341187 291.618469,860.945679 
	C239.414932,827.517700 196.840530,784.484375 163.731369,732.178955 
	C137.748672,691.131714 119.826675,646.765076 109.458626,599.206604 
	C101.519295,562.788635 98.974098,525.984009 100.983383,489.001831 
	C103.707161,438.868744 115.430984,390.628540 136.098724,344.762268 
	C157.266937,297.785278 186.033417,255.943817 222.810242,219.828766 
	C271.591675,171.925140 328.717194,137.724518 394.098083,117.610786 
	C421.214661,109.268669 449.046906,104.071129 477.328033,101.882957 
	C505.929352,99.670013 534.512329,99.899948 563.083130,103.467438 
	C617.500366,110.262253 668.568542,126.854225 716.048462,154.352554 
	C725.546143,159.853195 727.209290,164.217209 724.025269,174.574005 
	C712.074219,213.446609 732.237488,258.010986 769.391296,274.973206 
	C791.166626,284.914520 813.279541,286.253815 835.896362,278.043304 
	C846.259583,274.281128 850.515625,275.705597 856.874634,285.359894 
	C878.636230,318.398346 895.298584,353.856384 907.156433,391.604462 
	C913.959717,413.261841 918.865601,435.379181 921.884216,457.804535 
	C925.620117,485.559418 926.397278,513.492676 924.405396,541.511414 
	C921.902588,576.719604 915.341003,611.065857 904.010193,644.904175 
M808.908569,750.424927 
	C865.097900,680.373901 892.879272,600.332458 892.644836,510.646454 
	C892.579102,485.503326 890.124390,460.531158 884.953430,435.796844 
	C876.067017,393.290161 860.180359,353.652679 838.066772,316.390015 
	C836.379822,313.547455 834.588440,312.612274 831.197632,313.322174 
	C800.845276,319.676422 772.207092,314.945801 745.715271,298.875183 
	C704.149414,273.660339 682.960388,227.124313 689.277954,180.473282 
	C689.724365,177.176559 688.450500,175.940277 686.037476,174.729156 
	C668.599365,165.976715 650.714478,158.299774 632.159607,152.222275 
	C586.896484,137.396729 540.605225,131.393723 492.927399,133.844620 
	C460.570496,135.507919 429.062592,140.918289 398.374969,150.732986 
	C334.536652,171.150146 279.791748,206.122223 234.201508,255.337311 
	C199.451187,292.850647 173.508423,335.757812 155.756058,383.635284 
	C143.000916,418.035370 136.121048,453.612305 133.948532,490.262665 
	C132.045990,522.358948 133.697876,554.186279 139.808167,585.657654 
	C150.675079,641.628296 173.028870,692.743958 207.587204,738.172546 
	C276.366516,828.586060 367.061646,880.443848 480.434814,891.646240 
	C515.285767,895.089905 550.004395,892.908386 584.347168,886.426636 
	C613.718628,880.883057 642.095093,871.813782 669.283569,859.272461 
	C724.087891,833.992676 770.401611,797.775757 808.908569,750.424927 
z"/>
<path fill="#60CBB0" opacity="1.000000" stroke="none" 
	d="
M288.454742,578.636841 
	C308.926910,644.524292 349.963654,692.560791 411.095673,723.352234 
	C436.639648,736.218384 463.919098,743.389526 492.428497,745.818115 
	C553.470032,751.018066 608.145081,734.372864 656.423889,697.068542 
	C699.172363,664.037659 726.936340,620.933533 740.228394,568.549988 
	C744.300293,552.502808 746.109131,536.131470 746.572876,519.633240 
	C746.700256,515.103149 748.002197,513.418457 752.611572,513.628052 
	C759.929932,513.960876 767.272095,513.747192 774.603638,513.818848 
	C780.752014,513.878906 781.176147,514.296875 781.228943,520.342346 
	C781.435791,544.029480 776.992615,567.034363 770.550964,589.670654 
	C761.051453,623.052490 745.071533,653.175781 723.538940,680.325867 
	C696.561951,714.340698 663.193054,740.209900 623.686768,758.249451 
	C596.455200,770.683960 567.919983,778.299805 538.185059,780.907959 
	C516.424133,782.816650 494.630768,782.192871 472.938477,778.871948 
	C415.231262,770.037598 365.633270,744.884033 324.095520,704.175598 
	C290.336853,671.091003 267.134735,631.555176 254.511993,585.828857 
	C246.182693,555.655640 242.821014,524.946289 245.051926,493.861755 
	C247.750809,456.256714 257.663300,420.479706 275.654266,387.112488 
	C300.730591,340.604309 336.065033,304.097809 382.075195,278.110077 
	C411.080322,261.727203 442.225952,251.426224 475.192688,246.574692 
	C485.915314,244.996704 496.676575,244.149445 507.499420,243.753891 
	C511.660370,243.601822 513.160339,245.268097 513.105896,249.294678 
	C512.993286,257.624359 513.026367,265.959808 513.213501,274.288086 
	C513.296570,277.983215 511.778625,279.171967 508.188995,279.278015 
	C450.883545,280.971344 400.490936,300.576508 357.581177,338.584229 
	C322.893005,369.309601 299.540100,407.320496 287.383759,452.078369 
	C281.060242,475.360565 278.325958,499.148346 279.382385,523.226013 
	C280.200134,541.865051 282.870819,560.313416 288.454742,578.636841 
z"/>
<path fill="#667176" opacity="1.000000" stroke="none" 
	d="
M585.553223,582.309448 
	C596.672791,593.105591 607.448120,603.767944 618.262512,614.390564 
	C620.973572,617.053467 619.533752,619.021851 617.483276,621.133972 
	C602.219177,636.857422 584.122986,648.091614 563.433594,655.159485 
	C484.879547,681.994751 396.841064,637.392090 376.603577,553.564026 
	C361.235901,489.907867 388.768097,426.099976 445.410339,393.779602 
	C472.354401,378.405212 501.365356,373.274506 532.116821,376.486542 
	C564.303589,379.848450 591.766296,393.223389 615.481934,414.830719 
	C621.423523,420.244110 621.425415,420.420380 615.822021,426.123627 
	C606.720032,435.387909 597.368774,444.410400 588.386230,453.787323 
	C585.256653,457.054352 583.173645,456.723602 580.189514,453.743225 
	C567.243164,440.812866 551.822632,432.397125 533.789368,428.860870 
	C484.039490,419.105011 435.233459,452.050903 425.669220,501.882355 
	C415.821136,553.192505 450.979279,602.312195 502.841797,609.818665 
	C532.713440,614.142151 558.463440,605.817505 580.267334,585.028015 
	C581.666809,583.693604 582.830200,581.829468 585.553223,582.309448 
M387.434967,484.856232 
	C384.715363,494.856476 383.209015,505.025299 383.059265,515.398926 
	C382.523895,552.484375 394.416626,585.015930 420.552399,611.357239 
	C449.308136,640.339111 484.278961,654.558716 525.615417,651.827026 
	C554.575073,649.913208 579.810974,639.274231 601.913757,620.687378 
	C604.705383,618.339844 605.146545,616.603821 602.316589,613.927734 
	C597.357361,609.238159 592.540771,604.378418 587.933594,599.343628 
	C585.447693,596.626953 583.594482,596.718506 580.847473,598.978821 
	C557.750366,617.983826 531.120850,624.258179 501.821655,620.425964 
	C443.843597,612.842590 404.128296,559.439514 415.308350,499.418640 
	C429.047913,425.656769 516.118164,391.882294 576.587402,436.247223 
	C584.907776,442.351685 584.919067,442.363007 592.334167,434.955872 
	C596.874390,430.420471 601.373474,425.843872 606.375366,420.797150 
	C570.555359,390.766968 530.565308,378.699341 485.754120,389.734039 
	C435.468384,402.116791 403.058990,434.640045 387.434967,484.856232 
z"/>
</svg>
